<!DOCTYPE svg PUBLIC "-//W3C//DTD SVG 20010904//EN" "http://www.w3.org/TR/2001/REC-SVG-20010904/DTD/svg10.dtd">
<svg version="1.0" xmlns="http://www.w3.org/2000/svg" width="700px" height="300px" viewBox="0 0 7000 3000" preserveAspectRatio="xMidYMid meet">
<g id="layer101" fill="#210124" stroke="none">
 <path d="M0 1500 l0 -1500 3500 0 3500 0 0 1500 0 1500 -3500 0 -3500 0 0 -1500z"/>
 </g>
<g id="layer102" fill="#ffffff" stroke="none">
 <path d="M878 1850 c-116 -21 -236 -110 -286 -213 -38 -77 -58 -198 -44 -265 51 -241 257 -389 493 -354 142 21 254 102 266 192 5 35 2 43 -31 76 -33 33 -40 36 -74 30 -20 -3 -68 -19 -107 -35 -101 -42 -152 -48 -203 -22 -73 37 -109 111 -99 203 8 67 31 105 85 139 42 27 53 30 103 26 31 -3 69 -13 85 -23 l28 -19 -44 -3 c-36 -3 -53 -11 -82 -40 -50 -47 -51 -91 -7 -152 l31 -43 148 6 c82 3 157 10 168 16 52 28 57 181 8 283 -36 75 -115 149 -188 176 -65 24 -182 35 -250 22z"/>
 <path d="M1765 1851 c-88 -22 -166 -84 -206 -167 -28 -55 -32 -76 -32 -137 1 -96 30 -173 88 -231 69 -68 115 -86 222 -86 80 0 97 3 144 28 69 36 133 114 155 189 29 100 2 235 -59 301 -80 86 -208 128 -312 103z m123 -230 c26 -24 32 -38 32 -70 0 -54 -7 -67 -45 -91 -60 -37 -115 4 -115 85 0 44 17 80 44 93 34 17 50 14 84 -17z"/>
 <path d="M2658 1850 c-116 -21 -236 -110 -286 -213 -38 -77 -58 -198 -44 -265 51 -241 257 -389 493 -354 142 21 254 102 266 192 5 35 2 43 -31 76 -33 33 -40 36 -74 30 -20 -3 -68 -19 -107 -35 -101 -42 -152 -48 -203 -22 -73 37 -109 111 -99 203 8 67 31 105 85 139 42 27 53 30 103 26 31 -3 69 -13 85 -23 l28 -19 -44 -3 c-36 -3 -53 -11 -82 -40 -50 -47 -51 -91 -7 -152 l31 -43 148 6 c82 3 157 10 168 16 52 28 57 181 8 283 -36 75 -115 149 -188 176 -65 24 -182 35 -250 22z"/>
 <path d="M4173 1840 c-54 -33 -57 -45 -61 -303 l-4 -238 23 -26 c54 -57 92 -60 159 -13 l28 20 44 -25 c60 -34 174 -35 232 -2 71 40 95 81 107 182 15 118 7 321 -14 362 -17 32 -70 63 -107 63 -13 0 -37 -9 -56 -20 -41 -26 -54 -79 -54 -230 0 -123 -8 -155 -45 -172 -22 -10 -29 -9 -48 10 -20 21 -22 35 -27 170 -6 163 -18 200 -70 227 -39 20 -68 19 -107 -5z"/>
 <path d="M5087 1844 c-59 -18 -123 -79 -157 -149 -22 -44 -25 -63 -25 -160 0 -95 3 -116 23 -152 67 -126 157 -171 307 -153 l40 5 8 -98 c8 -113 23 -148 71 -171 49 -23 69 -20 118 17 l43 33 0 385 c0 422 0 420 -60 445 -37 15 -51 12 -108 -23 l-38 -24 -34 26 c-43 33 -120 41 -188 19z m159 -226 c40 -31 44 -38 44 -81 0 -30 -7 -44 -32 -68 -39 -35 -61 -37 -93 -5 -46 46 -39 135 12 165 26 15 37 13 69 -11z"/>
 <path d="M5896 1844 c-129 -47 -214 -210 -187 -356 20 -110 90 -207 177 -243 52 -22 146 -19 194 5 l39 20 64 -30 c35 -17 71 -28 80 -24 9 3 28 21 43 41 l26 35 -4 241 c-5 266 -8 283 -64 313 -35 19 -35 19 -89 -10 l-54 -28 -53 26 c-58 29 -112 32 -172 10z m156 -216 c54 -44 61 -102 19 -147 -34 -36 -58 -39 -94 -11 -32 25 -42 69 -27 115 17 51 66 72 102 43z"/>
 <path d="M3506 1830 c-60 -23 -125 -84 -157 -148 -21 -40 -24 -61 -24 -147 0 -118 14 -155 85 -224 62 -61 116 -83 204 -84 135 -2 239 60 294 174 28 58 30 137 3 170 -18 22 -26 23 -187 28 l-169 6 40 19 c44 21 92 24 207 12 74 -9 77 -8 102 17 56 56 21 142 -70 176 -76 29 -256 29 -328 1z m180 -362 c10 -16 -33 -48 -67 -48 -22 0 -32 7 -44 30 l-16 30 60 0 c35 0 63 -5 67 -12z"/>
 </g>

</svg>