<!DOCTYPE svg PUBLIC "-//W3C//DTD SVG 20010904//EN" "http://www.w3.org/TR/2001/REC-SVG-20010904/DTD/svg10.dtd">
<svg version="1.0" xmlns="http://www.w3.org/2000/svg" width="700px" height="300px" viewBox="0 0 7000 3000" preserveAspectRatio="xMidYMid meet">
<g id="layer101" fill="#000022" stroke="none">
 <path d="M0 1500 l0 -1500 3500 0 3500 0 0 1500 0 1500 -3500 0 -3500 0 0 -1500z"/>
 </g>
<g id="layer102" fill="#004e64" stroke="none">
 <path d="M4010 2202 c-65 -32 -77 -137 -35 -310 14 -57 25 -105 25 -108 0 -2 -98 -3 -217 -2 l-218 3 -30 100 c-16 55 -34 106 -38 113 -10 15 -57 16 -57 2 0 -6 -11 -15 -24 -22 -14 -6 -26 -20 -28 -32 -4 -22 5 -91 17 -138 7 -26 5 -28 -27 -28 -29 0 -46 13 -133 101 -119 121 -174 159 -227 159 -47 0 -78 -19 -110 -68 -31 -46 -38 -84 -29 -144 l8 -48 -38 0 c-36 0 -41 4 -132 123 -101 131 -166 197 -195 197 -40 0 -102 -74 -102 -121 0 -13 16 -62 35 -109 19 -46 35 -85 35 -87 0 -2 -15 -3 -33 -3 -28 0 -41 10 -96 73 -113 130 -217 206 -280 207 -33 0 -89 -37 -106 -70 -19 -37 -19 -106 0 -160 8 -23 15 -44 15 -46 0 -2 -71 -4 -158 -4 l-158 0 -35 36 c-48 50 -127 94 -170 94 -51 0 -124 -49 -140 -94 -13 -35 -15 -36 -64 -36 -49 0 -51 1 -90 56 -49 69 -108 121 -146 129 -22 5 -39 0 -71 -22 -53 -35 -69 -66 -66 -120 l3 -43 -92 0 -93 0 0 -285 0 -285 203 0 202 0 39 -75 c49 -93 80 -125 104 -107 9 7 27 16 40 22 12 5 25 17 28 25 6 13 -8 65 -31 118 -7 16 9 17 253 17 l260 0 6 -31 c3 -17 6 -58 6 -90 0 -53 -4 -63 -34 -96 -57 -64 -27 -82 62 -37 68 34 93 80 100 181 l5 73 171 0 172 0 26 -30 c29 -33 68 -41 68 -12 0 40 27 42 647 42 l592 0 14 -27 c8 -16 17 -44 21 -63 11 -58 21 -68 44 -42 11 12 27 22 35 22 22 0 37 31 37 74 l0 36 163 0 162 0 69 -103 c118 -174 215 -304 232 -311 16 -6 44 14 44 32 0 5 10 7 23 5 32 -6 51 19 43 59 -4 18 -35 96 -71 173 l-65 140 955 3 955 2 0 285 0 285 -143 0 -142 0 -100 101 c-119 121 -174 159 -227 159 -47 0 -78 -19 -110 -68 -31 -46 -38 -84 -29 -144 l8 -48 -38 0 c-36 0 -41 4 -132 123 -101 131 -166 197 -195 197 -40 0 -102 -74 -102 -121 0 -13 16 -62 35 -109 19 -46 35 -85 35 -87 0 -14 -29 5 -69 46 -61 63 -116 91 -179 91 -53 0 -68 -8 -102 -58 l-23 -34 -36 41 c-44 49 -106 91 -135 91 -40 0 -83 -37 -110 -94 -14 -30 -26 -62 -26 -71 0 -14 -19 -15 -157 -13 l-156 3 -28 100 c-16 55 -36 147 -45 205 -23 150 -17 141 -74 112z m-3 -139 c-3 -10 -5 -4 -5 12 0 17 2 24 5 18 2 -7 2 -21 0 -30z m21 -98 c0 -16 -2 -15 -8 5 -4 14 -8 36 -8 50 0 22 1 22 8 -5 4 -16 8 -39 8 -50z m9 -47 c-3 -8 -6 -5 -6 6 -1 11 2 17 5 13 3 -3 4 -12 1 -19z m10 -40 c-3 -8 -6 -5 -6 6 -1 11 2 17 5 13 3 -3 4 -12 1 -19z m-957 -57 l45 -40 -52 -1 c-52 0 -52 0 -62 38 -21 75 -13 75 69 3z m2660 0 l45 -40 -52 -1 c-52 0 -52 0 -62 38 -21 75 -13 75 69 3z m-3561 -15 l24 -26 -31 0 c-27 0 -35 6 -52 40 -11 21 -20 42 -20 45 0 9 51 -29 79 -59z m1868 37 c-4 -3 -7 0 -7 7 0 7 3 10 7 7 3 -4 3 -10 0 -14z m-2020 -10 c-4 -3 -7 0 -7 7 0 7 3 10 7 7 3 -4 3 -10 0 -14z m-1080 -45 c-3 -7 -5 -2 -5 12 0 14 2 19 5 13 2 -7 2 -19 0 -25z m1090 15 c-4 -3 -7 0 -7 7 0 7 3 10 7 7 3 -4 3 -10 0 -14z m523 -3 c6 -11 8 -20 6 -20 -3 0 -10 9 -16 20 -6 11 -8 20 -6 20 3 0 10 -9 16 -20z m1497 3 c-4 -3 -7 0 -7 7 0 7 3 10 7 7 3 -4 3 -10 0 -14z m1163 -3 c6 -11 8 -20 6 -20 -3 0 -10 9 -16 20 -6 11 -8 20 -6 20 3 0 10 -9 16 -20z m-2535 0 c3 -5 4 -10 1 -10 -3 0 -8 5 -11 10 -3 6 -4 10 -1 10 3 0 8 -4 11 -10z m252 -7 c-4 -3 -7 0 -7 7 0 7 3 10 7 7 3 -4 3 -10 0 -14z m530 0 c-4 -3 -7 0 -7 7 0 7 3 10 7 7 3 -4 3 -10 0 -14z m1878 7 c3 -5 4 -10 1 -10 -3 0 -8 5 -11 10 -3 6 -4 10 -1 10 3 0 8 -4 11 -10z m252 -7 c-4 -3 -7 0 -7 7 0 7 3 10 7 7 3 -4 3 -10 0 -14z m-3730 -645 c-3 -7 -5 -2 -5 12 0 14 2 19 5 13 2 -7 2 -19 0 -25z"/>
 </g>
<g id="layer103" fill="#009fc7" stroke="none">
 <path d="M3991 2182 c-68 -67 -45 -236 80 -586 27 -76 48 -140 47 -142 -2 -1 -29 35 -61 80 -114 165 -199 246 -256 246 -14 0 -49 -15 -76 -32 -49 -33 -63 -56 -80 -133 l-7 -30 -11 25 c-5 14 -37 106 -71 204 -65 190 -83 219 -114 181 -9 -12 -25 -24 -34 -28 -45 -17 -4 -180 127 -507 52 -129 103 -257 114 -285 11 -27 23 -62 26 -77 6 -32 21 -36 30 -9 4 12 12 17 24 14 9 -2 24 3 32 13 19 23 24 190 10 369 -5 77 -6 144 -2 148 19 19 155 -156 431 -556 154 -224 219 -305 220 -274 0 10 5 15 10 12 6 -3 10 3 10 15 0 17 4 20 20 15 11 -3 29 -3 41 0 29 10 20 39 -66 230 -180 399 -311 764 -346 965 -11 69 -23 135 -25 148 -6 31 -39 28 -73 -6z m75 -352 c31 -114 98 -301 166 -465 59 -141 65 -160 42 -120 -57 99 -192 468 -244 670 -16 61 -30 99 -31 85 -1 -23 -2 -23 -9 5 -12 46 -12 127 0 120 6 -3 10 0 11 7 0 7 9 -36 20 -97 11 -60 31 -153 45 -205z m-59 108 c-3 -8 -6 -5 -6 6 -1 11 2 17 5 13 3 -3 4 -12 1 -19z m-580 -55 c-4 -3 -7 0 -7 7 0 7 3 10 7 7 3 -4 3 -10 0 -14z m72 -123 c21 -63 55 -159 75 -214 20 -54 35 -100 33 -103 -9 -8 -138 340 -151 406 -10 56 1 32 43 -89z m-62 83 c-4 -3 -7 0 -7 7 0 7 3 10 7 7 3 -4 3 -10 0 -14z m260 -360 c-2 -21 -4 -4 -4 37 0 41 2 58 4 38 2 -21 2 -55 0 -75z m-20 50 c-3 -10 -5 -2 -5 17 0 19 2 27 5 18 2 -10 2 -26 0 -35z m358 -93 c3 -5 4 -10 1 -10 -3 0 -8 5 -11 10 -3 6 -4 10 -1 10 3 0 8 -4 11 -10z m26 -37 c13 -16 12 -17 -3 -4 -17 13 -22 21 -14 21 2 0 10 -8 17 -17z m49 -68 c17 -25 29 -45 26 -45 -3 0 -19 20 -36 45 -17 25 -29 45 -26 45 3 0 19 -20 36 -45z m80 -115 c22 -33 38 -60 36 -60 -3 0 -24 27 -46 60 -22 33 -38 60 -36 60 3 0 24 -27 46 -60z m-473 -52 c-3 -7 -5 -2 -5 12 0 14 2 19 5 13 2 -7 2 -19 0 -25z m-20 -20 c-3 -8 -6 -5 -6 6 -1 11 2 17 5 13 3 -3 4 -12 1 -19z"/>
 <path d="M3993 2065 c0 -22 2 -30 4 -17 2 12 2 30 0 40 -3 9 -5 -1 -4 -23z"/>
 <path d="M2468 2063 c-47 -51 -51 -68 -32 -131 44 -138 206 -424 261 -460 21 -13 23 -12 33 12 5 15 14 25 19 22 5 -4 17 -3 26 0 12 5 14 14 10 35 -4 16 -4 29 -2 29 3 0 38 -39 78 -87 128 -153 168 -181 201 -135 7 11 27 23 43 29 29 10 30 11 28 72 -2 44 -15 92 -44 169 -56 145 -93 261 -86 269 11 10 89 -61 205 -185 114 -121 172 -166 192 -146 7 7 4 19 -12 40 l-22 29 30 -27 c38 -36 44 -35 44 5 0 52 -47 118 -185 260 -144 147 -200 184 -260 173 -37 -7 -101 -72 -112 -114 -9 -36 4 -139 26 -211 11 -36 19 -67 17 -68 -4 -5 -101 113 -233 283 -56 72 -113 138 -127 147 -37 24 -69 21 -98 -10z m755 -268 c27 -30 47 -55 45 -55 -2 0 -44 41 -93 92 -50 50 -70 75 -46 55 25 -20 67 -62 94 -92z m-612 -70 c28 -55 47 -95 41 -90 -15 14 -142 248 -142 260 1 15 44 -58 101 -170z m316 158 c-4 -3 -7 0 -7 7 0 7 3 10 7 7 3 -4 3 -10 0 -14z m-240 -70 c32 -43 91 -118 132 -168 41 -49 67 -83 57 -75 -39 31 -267 320 -253 320 3 0 31 -35 64 -77z m322 -192 c18 -46 30 -86 27 -88 -13 -13 -107 268 -105 318 0 13 11 -14 24 -61 13 -47 37 -123 54 -169z m-86 184 c5 -28 4 -34 -3 -20 -8 19 -14 73 -6 64 2 -2 6 -22 9 -44z m-394 -5 c11 -24 11 -24 -3 -6 -9 11 -16 24 -16 30 0 12 5 7 19 -24z m408 -62 c-3 -8 -6 -5 -6 6 -1 11 2 17 5 13 3 -3 4 -12 1 -19z m10 -35 c-4 -3 -7 0 -7 7 0 7 3 10 7 7 3 -4 3 -10 0 -14z m23 -48 c0 -5 -5 -3 -10 5 -5 8 -10 20 -10 25 0 6 5 3 10 -5 5 -8 10 -19 10 -25z m375 5 c3 -5 4 -10 1 -10 -3 0 -8 5 -11 10 -3 6 -4 10 -1 10 3 0 8 -4 11 -10z m-368 -37 c-4 -3 -7 0 -7 7 0 7 3 10 7 7 3 -4 3 -10 0 -14z m-57 -98 c13 -14 21 -25 18 -25 -2 0 -15 11 -28 25 -13 14 -21 25 -18 25 2 0 15 -11 28 -25z"/>
 <path d="M5128 2063 c-47 -51 -51 -68 -32 -131 44 -138 206 -424 261 -460 21 -13 23 -12 33 12 5 15 14 25 19 22 5 -4 17 -3 26 0 12 5 14 14 10 35 -4 16 -4 29 -2 29 3 0 38 -39 78 -87 128 -153 168 -181 201 -135 7 11 27 23 43 29 29 10 30 11 28 72 -2 44 -15 92 -44 169 -56 145 -93 261 -86 269 11 10 89 -61 205 -185 114 -121 172 -166 192 -146 7 7 4 19 -12 40 l-22 29 30 -27 c38 -36 44 -35 44 5 0 52 -47 118 -185 260 -144 147 -200 184 -260 173 -37 -7 -101 -72 -112 -114 -9 -36 4 -139 26 -211 11 -36 19 -67 17 -68 -4 -5 -101 113 -233 283 -56 72 -113 138 -127 147 -37 24 -69 21 -98 -10z m755 -268 c27 -30 47 -55 45 -55 -2 0 -44 41 -93 92 -50 50 -70 75 -46 55 25 -20 67 -62 94 -92z m-612 -70 c28 -55 47 -95 41 -90 -15 14 -142 248 -142 260 1 15 44 -58 101 -170z m316 158 c-4 -3 -7 0 -7 7 0 7 3 10 7 7 3 -4 3 -10 0 -14z m-240 -70 c32 -43 91 -118 132 -168 41 -49 67 -83 57 -75 -39 31 -267 320 -253 320 3 0 31 -35 64 -77z m322 -192 c18 -46 30 -86 27 -88 -13 -13 -107 268 -105 318 0 13 11 -14 24 -61 13 -47 37 -123 54 -169z m-86 184 c5 -28 4 -34 -3 -20 -8 19 -14 73 -6 64 2 -2 6 -22 9 -44z m-394 -5 c11 -24 11 -24 -3 -6 -9 11 -16 24 -16 30 0 12 5 7 19 -24z m408 -62 c-3 -8 -6 -5 -6 6 -1 11 2 17 5 13 3 -3 4 -12 1 -19z m10 -35 c-4 -3 -7 0 -7 7 0 7 3 10 7 7 3 -4 3 -10 0 -14z m23 -48 c0 -5 -5 -3 -10 5 -5 8 -10 20 -10 25 0 6 5 3 10 -5 5 -8 10 -19 10 -25z m375 5 c3 -5 4 -10 1 -10 -3 0 -8 5 -11 10 -3 6 -4 10 -1 10 3 0 8 -4 11 -10z m-368 -37 c-4 -3 -7 0 -7 7 0 7 3 10 7 7 3 -4 3 -10 0 -14z m-57 -98 c13 -14 21 -25 18 -25 -2 0 -15 11 -28 25 -13 14 -21 25 -18 25 2 0 15 -11 28 -25z"/>
 <path d="M2032 2040 c-41 -25 -72 -76 -72 -118 0 -125 229 -540 276 -501 8 6 14 18 14 27 0 8 3 12 6 9 4 -3 15 -2 25 3 26 14 14 46 -81 220 -86 159 -104 200 -91 200 5 0 69 -61 142 -136 205 -209 334 -296 233 -158 l-36 49 42 -47 c23 -27 46 -48 51 -48 5 0 9 13 9 29 0 37 -63 132 -172 258 -96 113 -167 175 -232 208 -60 30 -72 31 -114 5z m258 -226 l45 -48 -60 51 c-33 28 -76 68 -95 89 l-35 38 50 -41 c28 -23 70 -63 95 -89z m-150 -170 c88 -156 82 -144 76 -144 -9 0 -120 186 -157 265 -21 44 -41 98 -44 120 -4 31 1 22 23 -36 16 -43 61 -135 102 -205z m-104 129 c-5 -5 -36 74 -36 90 1 6 10 -10 20 -37 11 -28 18 -51 16 -53z m33 -60 c12 -24 19 -43 16 -43 -5 0 -45 75 -45 86 0 11 6 2 29 -43z"/>
 <path d="M948 1935 c-42 -28 -51 -49 -49 -121 2 -93 94 -351 207 -577 78 -156 120 -221 141 -213 8 3 17 6 19 6 2 0 4 8 4 19 0 14 6 17 26 13 26 -5 27 -4 22 41 -3 28 -31 96 -76 185 -102 200 -214 480 -178 442 14 -15 175 -231 290 -390 60 -82 96 -114 104 -91 2 6 10 11 18 11 7 0 11 6 8 14 -4 11 4 16 33 18 34 3 38 6 41 33 2 17 -9 62 -24 100 -88 233 -116 355 -79 355 25 0 94 -78 168 -190 190 -288 256 -538 160 -608 -17 -13 -24 -25 -20 -36 6 -15 11 -14 59 4 66 24 93 55 114 127 39 133 -24 351 -164 564 -95 146 -233 269 -303 269 -36 0 -115 -53 -136 -92 -12 -23 -17 -54 -17 -100 1 -38 0 -68 -2 -68 -2 0 -42 51 -89 114 -109 145 -163 196 -207 195 -18 0 -50 -11 -70 -24z m28 -187 c13 -50 22 -94 19 -96 -2 -2 -14 30 -27 72 -17 58 -24 73 -30 59 -6 -13 -7 -11 -3 7 2 14 5 34 5 44 0 37 13 6 36 -86z m139 42 c3 -5 4 -10 1 -10 -3 0 -8 5 -11 10 -3 6 -4 10 -1 10 3 0 8 -4 11 -10z m293 -224 c19 -66 5 -53 -16 16 -11 34 -22 92 -26 128 l-6 65 19 -85 c10 -47 23 -103 29 -124z m-461 167 c-4 -3 -7 0 -7 7 0 7 3 10 7 7 3 -4 3 -10 0 -14z m208 7 c3 -5 4 -10 1 -10 -3 0 -8 5 -11 10 -3 6 -4 10 -1 10 3 0 8 -4 11 -10z m192 -27 c-3 -10 -5 -4 -5 12 0 17 2 24 5 18 2 -7 2 -21 0 -30z m-390 -20 c-4 -3 -7 0 -7 7 0 7 3 10 7 7 3 -4 3 -10 0 -14z m234 0 c13 -16 12 -17 -3 -4 -10 7 -18 15 -18 17 0 8 8 3 21 -13z m30 -40 c13 -16 12 -17 -3 -4 -10 7 -18 15 -18 17 0 8 8 3 21 -13z m136 -5 c-3 -8 -6 -5 -6 6 -1 11 2 17 5 13 3 -3 4 -12 1 -19z m-333 -58 c5 -17 4 -20 -2 -10 -5 8 -13 26 -16 40 -5 17 -4 20 2 10 5 -8 13 -26 16 -40z m236 10 c12 -16 19 -30 16 -30 -2 0 -14 14 -26 30 -12 17 -19 30 -16 30 2 0 14 -13 26 -30z m445 10 c3 -5 4 -10 1 -10 -3 0 -8 5 -11 10 -3 6 -4 10 -1 10 3 0 8 -4 11 -10z m30 -50 c3 -5 4 -10 1 -10 -3 0 -8 5 -11 10 -3 6 -4 10 -1 10 3 0 8 -4 11 -10z m-685 -35 c0 -5 -5 -3 -10 5 -5 8 -10 20 -10 25 0 6 5 3 10 -5 5 -8 10 -19 10 -25z m251 18 c13 -16 12 -17 -3 -4 -10 7 -18 15 -18 17 0 8 8 3 21 -13z m494 -95 c51 -105 86 -229 84 -297 -1 -38 -4 -32 -14 39 -16 100 -45 190 -91 283 -19 37 -32 67 -29 67 3 0 26 -42 50 -92z m-675 -75 c62 -136 79 -186 33 -98 -29 55 -103 222 -103 232 0 14 12 -9 70 -134z m739 -237 c2 -60 -6 -39 -12 34 -3 41 -2 54 3 35 4 -16 8 -48 9 -69z"/>
 <path d="M4545 1928 c-34 -27 -64 -92 -65 -139 0 -82 71 -256 147 -356 86 -115 168 -145 246 -91 22 16 31 17 42 8 12 -10 16 -9 21 4 3 9 11 13 16 10 7 -4 8 6 4 27 -6 27 -5 30 4 17 6 -10 20 -18 31 -18 11 0 17 4 14 10 -3 6 1 7 9 4 9 -3 16 -1 16 5 0 5 -27 76 -61 156 -33 80 -63 163 -66 183 l-6 37 29 -25 c16 -13 79 -76 141 -140 84 -87 114 -112 123 -104 9 9 9 17 0 35 -11 23 -11 23 9 -1 15 -19 23 -22 32 -13 29 29 -74 218 -165 301 -58 53 -118 81 -173 82 -34 0 -46 -5 -67 -31 -14 -16 -30 -38 -35 -47 -9 -15 -16 -11 -58 29 -26 25 -59 53 -73 63 -34 22 -82 20 -115 -6z m161 -135 c21 -26 33 -44 27 -40 -14 9 -77 87 -70 87 3 0 22 -21 43 -47z m-199 -10 c-4 -3 -7 0 -7 7 0 7 3 10 7 7 3 -4 3 -10 0 -14z m89 -163 c19 -41 47 -91 61 -110 17 -22 20 -29 7 -18 -49 43 -135 226 -133 286 0 18 5 9 15 -28 8 -30 30 -89 50 -130z m124 35 c71 -94 132 -188 143 -217 13 -35 -23 -18 -77 36 -63 63 -127 165 -156 250 l-20 59 21 -19 c12 -10 52 -59 89 -109z m330 90 c13 -14 21 -25 18 -25 -2 0 -15 11 -28 25 -13 14 -21 25 -18 25 2 0 15 -11 28 -25z m-289 -22 c13 -16 12 -17 -3 -4 -10 7 -18 15 -18 17 0 8 8 3 21 -13z m354 -53 c3 -5 4 -10 1 -10 -3 0 -8 5 -11 10 -3 6 -4 10 -1 10 3 0 8 -4 11 -10z m40 -50 c3 -5 4 -10 1 -10 -3 0 -8 5 -11 10 -3 6 -4 10 -1 10 3 0 8 -4 11 -10z m20 -30 c3 -5 4 -10 1 -10 -3 0 -8 5 -11 10 -3 6 -4 10 -1 10 3 0 8 -4 11 -10z m-470 -140 c10 -11 16 -20 13 -20 -3 0 -13 9 -23 20 -10 11 -16 20 -13 20 3 0 13 -9 23 -20z"/>
 <path d="M2275 1370 c-4 -6 -3 -14 0 -20 3 -5 -1 -10 -9 -10 -35 0 -1 -92 56 -153 40 -41 57 -46 65 -17 3 10 14 22 24 25 27 9 24 42 -7 87 -40 58 -116 109 -129 88z m70 -118 c21 -23 30 -40 21 -36 -9 4 -31 27 -48 53 -34 50 -30 48 27 -17z"/>
 </g>

</svg>